<svg width="12" height="10" viewBox="0 0 12 10" fill="none" xmlns="http://www.w3.org/2000/svg">
<path d="M3.57144 0.714286C3.92462 0.714286 4.26987 0.819016 4.56353 1.01523C4.85719 1.21145 5.08607 1.49034 5.22123 1.81664C5.35638 2.14293 5.39175 2.50198 5.32284 2.84838C5.25394 3.19477 5.08387 3.51295 4.83413 3.76269C4.5844 4.01243 4.26621 4.1825 3.91982 4.2514C3.57342 4.3203 3.21438 4.28494 2.88808 4.14979C2.56178 4.01463 2.28289 3.78575 2.08668 3.49209C1.89046 3.19843 1.78573 2.85318 1.78573 2.5C1.78573 2.0264 1.97387 1.5722 2.30875 1.23731C2.64364 0.902423 3.09784 0.714286 3.57144 0.714286ZM3.57144 0C3.07699 0 2.59364 0.146622 2.18252 0.421326C1.77139 0.69603 1.45096 1.08648 1.26174 1.54329C1.07252 2.00011 1.02302 2.50277 1.11948 2.98773C1.21594 3.47268 1.45404 3.91814 1.80368 4.26777C2.15331 4.6174 2.59876 4.8555 3.08372 4.95196C3.56867 5.04843 4.07134 4.99892 4.52815 4.8097C4.98497 4.62048 5.37541 4.30005 5.65012 3.88893C5.92482 3.4778 6.07144 2.99445 6.07144 2.5C6.07144 1.83696 5.80805 1.20107 5.33921 0.732233C4.87037 0.263392 4.23448 0 3.57144 0Z" fill="black"/>
<path d="M7.14286 9.99995H6.42857V8.21423C6.42857 7.74063 6.24043 7.28643 5.90555 6.95154C5.57066 6.61666 5.11646 6.42852 4.64286 6.42852H2.5C2.0264 6.42852 1.5722 6.61666 1.23731 6.95154C0.902423 7.28643 0.714286 7.74063 0.714286 8.21423V9.99995H0V8.21423C0 7.55119 0.263392 6.91531 0.732233 6.44647C1.20107 5.97763 1.83696 5.71423 2.5 5.71423H4.64286C5.3059 5.71423 5.94178 5.97763 6.41062 6.44647C6.87947 6.91531 7.14286 7.55119 7.14286 8.21423V9.99995Z" fill="black"/>
<path d="M7.57144 0.714286C7.92462 0.714286 8.26987 0.819016 8.56353 1.01523C8.85719 1.21145 9.08607 1.49034 9.22123 1.81664C9.35638 2.14293 9.39175 2.50198 9.32284 2.84838C9.25394 3.19477 9.08387 3.51295 8.83413 3.76269C8.5844 4.01243 8.26621 4.1825 7.91982 4.2514C7.57342 4.3203 7.21438 4.28494 6.88808 4.14979C6.56178 4.01463 6.28289 3.78575 6.08668 3.49209C5.89046 3.19843 5.78573 2.85318 5.78573 2.5C5.78573 2.0264 5.97387 1.5722 6.30875 1.23731C6.64364 0.902423 7.09784 0.714286 7.57144 0.714286ZM7.57144 0C7.07699 0 6.59364 0.146622 6.18252 0.421326C5.77139 0.69603 5.45096 1.08648 5.26174 1.54329C5.07252 2.00011 5.02302 2.50277 5.11948 2.98773C5.21594 3.47268 5.45404 3.91814 5.80368 4.26777C6.15331 4.6174 6.59876 4.8555 7.08372 4.95196C7.56867 5.04843 8.07134 4.99892 8.52815 4.8097C8.98497 4.62048 9.37541 4.30005 9.65012 3.88893C9.92482 3.4778 10.0714 2.99445 10.0714 2.5C10.0714 1.83696 9.80805 1.20107 9.33921 0.732233C8.87037 0.263392 8.23448 0 7.57144 0Z" fill="black"/>
<path d="M11.1429 9.99995H10.4286V8.21423C10.4286 7.74063 10.2404 7.28643 9.90555 6.95154C9.57066 6.61666 9.11646 6.42852 8.64286 6.42852H6.5C6.0264 6.42852 5.5722 6.61666 5.23731 6.95154C4.90242 7.28643 4.71429 7.74063 4.71429 8.21423V9.99995H4V8.21423C4 7.55119 4.26339 6.91531 4.73223 6.44647C5.20107 5.97763 5.83696 5.71423 6.5 5.71423H8.64286C9.3059 5.71423 9.94178 5.97763 10.4106 6.44647C10.8795 6.91531 11.1429 7.55119 11.1429 8.21423V9.99995Z" fill="black"/>
</svg>
