<svg width="12" height="12" viewBox="0 0 12 12" fill="none" xmlns="http://www.w3.org/2000/svg">
<path fill-rule="evenodd" clip-rule="evenodd" d="M10.1128 1.03039C9.42938 0.346967 8.32134 0.346969 7.63792 1.03039L1.05223 7.61608C0.884966 7.78334 0.759633 7.98779 0.686461 8.21273L0.212185 9.6707C-0.0406644 10.448 0.695187 11.1838 1.47248 10.931L2.93045 10.4567C3.15539 10.3835 3.35984 10.2582 3.5271 10.091L10.1128 3.50526C10.7962 2.82184 10.7962 1.7138 10.1128 1.03039ZM8.34503 1.73749C8.63792 1.4446 9.11279 1.4446 9.40569 1.73749C9.69858 2.03039 9.69858 2.50526 9.40569 2.79815L2.81999 9.38385C2.76424 9.4396 2.69609 9.48138 2.62111 9.50577L1.16314 9.98004L1.63741 8.52207C1.6618 8.44709 1.70358 8.37894 1.75933 8.32319L8.34503 1.73749ZM5.49999 10.5001C5.22385 10.5001 4.99999 10.7239 4.99999 11.0001C4.99999 11.2762 5.22385 11.5001 5.49999 11.5001H10.5C10.7761 11.5001 11 11.2762 11 11.0001C11 10.7239 10.7761 10.5001 10.5 10.5001H5.49999Z" fill="white"/>
</svg>
