<svg width="14" height="10" viewBox="0 0 14 10" fill="none" xmlns="http://www.w3.org/2000/svg">
<path d="M10.4998 7C10.3672 7 10.2401 7.05268 10.1463 7.14645C10.0525 7.24021 9.99985 7.36739 9.99985 7.5C9.99985 7.63261 10.0525 7.75979 10.1463 7.85355C10.2401 7.94732 10.3672 8 10.4998 8H12.4998C12.6325 8 12.7596 7.94732 12.8534 7.85355C12.9472 7.75979 12.9998 7.63261 12.9998 7.5C12.9998 7.36739 12.9472 7.24021 12.8534 7.14645C12.7596 7.05268 12.6325 7 12.4998 7H10.4998Z" fill="black"/>
<path d="M0 2C0 1.46957 0.210714 0.960859 0.585786 0.585786C0.960859 0.210714 1.46957 0 2 0H12C12.5304 0 13.0391 0.210714 13.4142 0.585786C13.7893 0.960859 14 1.46957 14 2V8C14 8.53043 13.7893 9.03914 13.4142 9.41421C13.0391 9.78929 12.5304 10 12 10H2C1.46957 10 0.960859 9.78929 0.585786 9.41421C0.210714 9.03914 0 8.53043 0 8V2ZM13 2C13 1.73478 12.8946 1.48043 12.7071 1.29289C12.5196 1.10536 12.2652 1 12 1H2C1.73478 1 1.48043 1.10536 1.29289 1.29289C1.10536 1.48043 1 1.73478 1 2V3H13V2ZM1 8C1 8.26522 1.10536 8.51957 1.29289 8.70711C1.48043 8.89464 1.73478 9 2 9H12C12.2652 9 12.5196 8.89464 12.7071 8.70711C12.8946 8.51957 13 8.26522 13 8V4H1V8Z" fill="black"/>
</svg>
