<svg width="10" height="14" viewBox="0 0 10 14" fill="none" xmlns="http://www.w3.org/2000/svg">
<path d="M4.99973 1C5.49418 1 5.97753 1.14662 6.38865 1.42133C6.79978 1.69603 7.12021 2.08648 7.30943 2.54329C7.49864 3.00011 7.54815 3.50277 7.45169 3.98773C7.35523 4.47268 7.11713 4.91814 6.76749 5.26777C6.41786 5.6174 5.97241 5.8555 5.48745 5.95196C5.0025 6.04843 4.49983 5.99892 4.04302 5.8097C3.5862 5.62048 3.19576 5.30005 2.92105 4.88893C2.64635 4.4778 2.49973 3.99445 2.49973 3.5C2.49973 2.83696 2.76312 2.20107 3.23196 1.73223C3.7008 1.26339 4.33669 1 4.99973 1ZM4.99973 0C4.30749 0 3.6308 0.205271 3.05523 0.589856C2.47966 0.974441 2.03106 1.52107 1.76615 2.16061C1.50124 2.80015 1.43193 3.50388 1.56698 4.18282C1.70203 4.86175 2.03537 5.48539 2.52485 5.97487C3.01434 6.46436 3.63798 6.7977 4.31691 6.93275C4.99584 7.0678 5.69958 6.99849 6.33912 6.73358C6.97866 6.46867 7.52529 6.02007 7.90987 5.4445C8.29446 4.86892 8.49973 4.19223 8.49973 3.5C8.49973 2.57174 8.13098 1.6815 7.4746 1.02513C6.81822 0.368749 5.92798 0 4.99973 0Z" fill="black"/>
<path d="M10 14H9V11.5C9 10.837 8.73661 10.2011 8.26777 9.73223C7.79893 9.26339 7.16304 9 6.5 9H3.5C2.83696 9 2.20107 9.26339 1.73223 9.73223C1.26339 10.2011 1 10.837 1 11.5V14H0V11.5C0 10.5717 0.368749 9.6815 1.02513 9.02513C1.6815 8.36875 2.57174 8 3.5 8H6.5C7.42826 8 8.3185 8.36875 8.97487 9.02513C9.63125 9.6815 10 10.5717 10 11.5V14Z" fill="black"/>
</svg>
